# xmcd
#
# Track frame offsets:
#	150
#	84787
#	106916
#	159237
#	161830
#	176446
#	209250
#	307047
#	311049
#
# Disc length: 4510 seconds
#
# Revision: 0
# Processed by: cddbd v1.5.1PL0 Copyright (c) Steve Scherf et al.
# Submitted via: dBpowerAMP V4.0
#
DISCID=68119c09
DTITLE=Joanna Connor - Live and Raw
DYEAR=2004
DGENRE=Blues
TTITLE0=White Lines
TTITLE1=Make Love to you
TTITLE2=Got to Have You
TTITLE3=Dr. Feelgood
TTITLE4=Fine and Sublime
TTITLE5=You are so fine
TTITLE6=Sunset
TTITLE7=No Black or White
TTITLE8=Walkin' Blues
EXTD=Joanna Connor - guitars/lead/slide\nLance Lewis - Drums\nJR Fulller: Bass\nToronzo Cannon - guitar
EXTT0=
EXTT1=
EXTT2=
EXTT3=
EXTT4=
EXTT5=
EXTT6=
EXTT7=
EXTT8=
PLAYORDER=
